<svg width="148" height="30" viewBox="0 0 148 30" fill="none" xmlns="http://www.w3.org/2000/svg">
<path d="M7.61246 29C6.11832 29 4.82339 28.7178 3.72769 28.1533C2.63199 27.5778 1.77977 26.8086 1.17105 25.8457C0.573395 24.8828 0.274567 23.8258 0.274567 22.6748V12.5811C0.274567 11.4189 0.573395 10.362 1.17105 9.41016C1.77977 8.44727 2.63199 7.68359 3.72769 7.11914C4.82339 6.54362 6.11832 6.25586 7.61246 6.25586H12.7257C14.2199 6.25586 15.5148 6.54362 16.6105 7.11914C17.7173 7.68359 18.5695 8.44727 19.1671 9.41016C19.7648 10.362 20.0636 11.4189 20.0636 12.5811V22.6748C20.0636 23.8258 19.7648 24.8828 19.1671 25.8457C18.5695 26.8086 17.7173 27.5778 16.6105 28.1533C15.5148 28.7178 14.2199 29 12.7257 29H7.61246ZM6.93179 21.4795H8.70816V15.2041H14.2531V13.4609H8.70816V9.50977H15.1994V7.75H6.93179V21.4795ZM28.2887 29C26.7946 29 25.4996 28.7178 24.4039 28.1533C23.3082 27.5778 22.456 26.8086 21.8473 25.8457C21.2496 24.8828 20.9508 23.8258 20.9508 22.6748V12.5811C20.9508 11.4189 21.2496 10.362 21.8473 9.41016C22.456 8.44727 23.3082 7.68359 24.4039 7.11914C25.4996 6.54362 26.7946 6.25586 28.2887 6.25586H33.402C34.8961 6.25586 36.1911 6.54362 37.2868 7.11914C38.3935 7.68359 39.2457 8.44727 39.8434 9.41016C40.4411 10.362 40.7399 11.4189 40.7399 12.5811V22.6748C40.7399 23.8258 40.4411 24.8828 39.8434 25.8457C39.2457 26.8086 38.3935 27.5778 37.2868 28.1533C36.1911 28.7178 34.8961 29 33.402 29H28.2887ZM26.9606 21.4795H36.5563V19.7197H32.6549V9.50977H36.5563V7.75H26.9606V9.50977H30.8786V19.7197H26.9606V21.4795ZM48.965 29C47.4708 29 46.1759 28.7178 45.0802 28.1533C43.9845 27.5778 43.1323 26.8086 42.5236 25.8457C41.9259 24.8828 41.6271 23.8258 41.6271 22.6748V12.5811C41.6271 11.4189 41.9259 10.362 42.5236 9.41016C43.1323 8.44727 43.9845 7.68359 45.0802 7.11914C46.1759 6.54362 47.4708 6.25586 48.965 6.25586H54.0782C55.5724 6.25586 56.8673 6.54362 57.963 7.11914C59.0698 7.68359 59.922 8.44727 60.5196 9.41016C61.1173 10.362 61.4161 11.4189 61.4161 12.5811V22.6748C61.4161 23.8258 61.1173 24.8828 60.5196 25.8457C59.922 26.8086 59.0698 27.5778 57.963 28.1533C56.8673 28.7178 55.5724 29 54.0782 29H48.965ZM47.0392 21.4795H48.7989V9.69238L50.0939 9.47656H54.0782L55.2237 9.65918L55.3898 10.6387V21.4795H57.1661V10.4062L56.9337 9.01172L55.8712 7.94922L54.1778 7.75H50.0275L47.0392 8.16504V21.4795Z" fill="#00B4CC"/>
<path d="M57.7856 2.2429V0.636363H77.6596V2.2429H68.5882V29H66.857V2.2429H57.7856ZM81.238 29V0.636363H97.0263V2.2429H82.9692V14.0011H96.1815V15.6076H82.9692V27.3935H97.3587V29H81.238ZM123.079 9.5H121.306C121.122 8.53977 120.775 7.61186 120.267 6.71626C119.76 5.81143 119.104 4.99893 118.301 4.27876C117.507 3.54936 116.584 2.9723 115.531 2.54758C114.478 2.12287 113.315 1.91051 112.041 1.91051C110.176 1.91051 108.459 2.40909 106.889 3.40625C105.329 4.39418 104.077 5.84837 103.136 7.76882C102.203 9.68927 101.737 12.0391 101.737 14.8182C101.737 17.6158 102.203 19.9748 103.136 21.8952C104.077 23.8157 105.329 25.2699 106.889 26.2578C108.459 27.2365 110.176 27.7259 112.041 27.7259C113.315 27.7259 114.478 27.5181 115.531 27.1026C116.584 26.6779 117.507 26.1055 118.301 25.3853C119.104 24.6559 119.76 23.8388 120.267 22.9339C120.775 22.0291 121.122 21.0966 121.306 20.1364H123.079C122.876 21.2812 122.483 22.4031 121.902 23.5018C121.329 24.6005 120.572 25.5977 119.63 26.4933C118.698 27.3796 117.595 28.0859 116.32 28.6122C115.055 29.1293 113.629 29.3878 112.041 29.3878C109.677 29.3878 107.595 28.7876 105.795 27.5874C103.994 26.3778 102.582 24.679 101.557 22.4908C100.541 20.3026 100.033 17.745 100.033 14.8182C100.033 11.8913 100.541 9.33381 101.557 7.1456C102.582 4.95739 103.994 3.26314 105.795 2.06285C107.595 0.853337 109.677 0.248578 112.041 0.248578C113.629 0.248578 115.055 0.511718 116.32 1.038C117.595 1.55504 118.698 2.25675 119.63 3.14311C120.572 4.02024 121.329 5.00817 121.902 6.10689C122.483 7.20561 122.876 8.33665 123.079 9.5ZM127.004 29V0.636363H128.735V14.0011H145.825V0.636363H147.556V29H145.825V15.6076H128.735V29H127.004Z" fill="#F0F0F0"/>
</svg>
